HIERARCHY
ROOT root
{
	OFFSET	0	13.1	24.9
	CHANNELS 6  Xposition Yposition Zposition Xrotation Yrotation Zrotation
	JOINT spine_1
	{
		OFFSET	0	9.99999	0
		CHANNELS 3  Xrotation Yrotation Zrotation
		JOINT spine_2
		{
			OFFSET	0	112	-10
			CHANNELS 3  Xrotation Yrotation Zrotation
			JOINT spine_3
			{
				OFFSET	0	206.5	19.3
				CHANNELS 3  Xrotation Yrotation Zrotation
				JOINT spine_4
				{
					OFFSET	0	110.4	14.6
					CHANNELS 3  Xrotation Yrotation Zrotation
					JOINT neck_1
					{
						OFFSET	0	71.8	-50.3
						CHANNELS 3  Xrotation Yrotation Zrotation
						JOINT neck_2
						{
							OFFSET	0	86.2	-25.8
							CHANNELS 3  Xrotation Yrotation Zrotation
							JOINT head_ee
							{
								OFFSET	0	179.8	-8.7
								CHANNELS 3  Xrotation Yrotation Zrotation
								End Site
								{
									OFFSET	1	0	0
								}
							}
						}
					}
					JOINT left_clavicle
					{
						OFFSET	-43.2	22.4	-70.8
						CHANNELS 3  Xrotation Yrotation Zrotation
						JOINT left_shoulder
						{
							OFFSET	-93.9	-5.79999	48.7
							CHANNELS 3  Xrotation Yrotation Zrotation
							JOINT left_elbow
							{
								OFFSET	-291.4	-30.8	15.2
								CHANNELS 3  Xrotation Yrotation Zrotation
								JOINT left_lowarm_twist
								{
									OFFSET	-110.7	-3.89999	13.6
									CHANNELS 3  Xrotation Yrotation Zrotation
									JOINT left_hand
									{
										OFFSET	-110.7	-3.89999	13.6
										CHANNELS 3  Xrotation Yrotation Zrotation
										JOINT left_ee
										{
											OFFSET	-80.8	-5.10001	12.1
											CHANNELS 3  Xrotation Yrotation Zrotation
											End Site
											{
												OFFSET	1	0	0
											}
										}
									}
								}
							}
						}
					}
					JOINT right_clavicle
					{
						OFFSET	43.2	22.4	-70.8
						CHANNELS 3  Xrotation Yrotation Zrotation
						JOINT right_shoulder
						{
							OFFSET	93.9	-5.79999	48.7
							CHANNELS 3  Xrotation Yrotation Zrotation
							JOINT right_elbow
							{
								OFFSET	291.4	-30.8	15.2
								CHANNELS 3  Xrotation Yrotation Zrotation
								JOINT right_lowarm_twist
								{
									OFFSET	110.7	-3.89999	13.6
									CHANNELS 3  Xrotation Yrotation Zrotation
									JOINT right_hand
									{
										OFFSET	110.7	-3.89999	13.6
										CHANNELS 3  Xrotation Yrotation Zrotation
										JOINT right_ee
										{
											OFFSET	80.8	-5.10001	12.1
											CHANNELS 3  Xrotation Yrotation Zrotation
											End Site
											{
												OFFSET	1	0	0
											}
										}
									}
								}
							}
						}
					}
				}
			}
		}
	}
	JOINT left_hip
	{
		OFFSET	-82.8	-127.5	0.300001
		CHANNELS 3  Xrotation Yrotation Zrotation
		JOINT left_knee
		{
			OFFSET	-28.2	-396.7	2.2
			CHANNELS 3  Xrotation Yrotation Zrotation
			JOINT left_ankle
			{
				OFFSET	-11.7	-411.3	35.4
				CHANNELS 3  Xrotation Yrotation Zrotation
				JOINT left_toes
				{
					OFFSET	0	-60	-88.6
					CHANNELS 3  Xrotation Yrotation Zrotation
					JOINT left_foot_ee
					{
						OFFSET	-22.5	-16.5	-42.2
						CHANNELS 3  Xrotation Yrotation Zrotation
						End Site
						{
							OFFSET	1	0	0
						}
					}
				}
			}
		}
	}
	JOINT right_hip
	{
		OFFSET	82.8	-127.5	0.300001
		CHANNELS 3  Xrotation Yrotation Zrotation
		JOINT right_knee
		{
			OFFSET	28.2	-396.7	2.2
			CHANNELS 3  Xrotation Yrotation Zrotation
			JOINT right_ankle
			{
				OFFSET	11.7	-411.3	35.4
				CHANNELS 3  Xrotation Yrotation Zrotation
				JOINT right_toes
				{
					OFFSET	0	-60	-88.6
					CHANNELS 3  Xrotation Yrotation Zrotation
					JOINT right_foot_ee
					{
						OFFSET	22.5	-16.5	-42.2
						CHANNELS 3  Xrotation Yrotation Zrotation
						End Site
						{
							OFFSET	1	0	0
						}
					}
				}
			}
		}
	}
}
MOTION
Frames: 12
Frame Time: 0.02
3177.02 653.055 -1669.29 -1.46290657736 58.9082776575 -4.46018685433 0.722926 0.869272 4.49157 0.733958 0.582002 4.53765 0.784003 -0.322347 4.5634 0.755178 0.401634 4.55712 -22.9889 2.75363 -1.70653 -23.0479 6.09189 -0.287196 -0.0 0.0 -0.0 -4.04387 20.9698 -3.40598 -23.5342 -30.699 70.9826 0.561864 -15.5537 0.076735 -11.7662 -0.559885 1.39367 4.66445 23.1454 39.8221 -0.0 0.0 -0.0 12.7397 21.6576 -25.512 10.0351 22.2929 -58.1073 1.98457 44.5067 -0.81211 24.3307 -0.206522 3.0779 3.64542 25.8059 -12.6979 0.0 0.0 0.0 30.4242 13.6391 -1.28078 -8.76182 0.260379 1.31815 -4.54214 28.8578 0.715598 -35.7404 0.0 0.0 -0.0 0.0 -0.0 -3.93158 2.4131 9.93978 -25.9845 -0.176807 -3.9496 38.0536 26.3305 5.48912 -11.9433 0.0 0.0 0.0 0.0 0.0 
3152.88447691 653.356 -1670.32286069 -1.40850199277 58.9227819736 -4.32564394567 0.702511 0.893388 4.44672 0.713302 0.608914 4.49442 0.765059 -0.288852 4.52621 0.736737 0.428857 4.51512 -22.1992 3.17309 -1.48476 -22.2727 6.82063 0.0729507 -0.0 0.0 -0.0 -3.9379 20.7373 -3.30375 -21.3373 -31.4443 70.1998 0.693992 -18.9722 0.115962 -10.9536 -0.512099 1.30133 4.69767 23.2725 40.1043 -0.0 0.0 -0.0 12.6198 21.6045 -25.2388 8.66324 20.8148 -58.5624 1.82977 42.1855 -0.705836 24.046 -0.2117 3.04191 3.62851 26.3844 -12.2704 0.0 0.0 0.0 31.35 13.375 -1.76269 -13.7787 0.317867 2.08555 -4.48394 26.577 0.696657 -35.5651 0.0 0.0 -0.0 0.0 -0.0 -4.66048 2.60571 9.33064 -27.5556 -0.129904 -4.18614 37.1815 17.6864 4.99959 -11.7259 0.0 0.0 0.0 0.0 0.0 
3128.76609184 652.47 -1672.68718463 -1.64677368142 59.3431941415 -4.30546883531 0.741982 0.772976 4.42011 0.752714 0.490433 4.46023 0.794528 -0.396313 4.46956 0.766797 0.313816 4.47609 -22.036 3.91511 -0.697542 -22.1393 7.8845 1.13317 -0.0 0.0 -0.0 -3.54617 20.4997 -2.78146 -21.009 -31.4226 69.0185 0.741878 -20.1786 0.132008 -12.8811 -0.627577 1.51925 4.28279 24.022 36.9916 -0.0 0.0 -0.0 12.1707 20.235 -24.3094 6.66065 20.0578 -59.0613 1.90769 43.3762 -0.758764 22.6982 -0.233781 2.87116 3.91957 26.3435 -14.2017 0.0 0.0 0.0 31.6916 12.0883 -0.87147 -18.4005 0.311245 2.79445 1.41098 27.9444 -0.218411 -34.1814 0.0 0.0 -0.0 0.0 -0.0 -5.61167 3.88029 9.36911 -29.1709 -0.0749288 -4.42794 35.6456 12.3537 4.68452 -10.2831 0.0 0.0 0.0 0.0 0.0 
3128.75567317 652.47 -1672.53580827 -1.65554163764 59.5228413996 -4.29528580778 0.741982 0.772976 4.42011 0.752714 0.490433 4.46023 0.794528 -0.396313 4.46956 0.766797 0.313816 4.47609 -22.036 3.91511 -0.697542 -22.1393 7.8845 1.13317 -0.0 0.0 -0.0 -3.54617 20.4997 -2.78146 -21.009 -31.4226 69.0185 0.741878 -20.1786 0.132008 -12.8811 -0.627577 1.51925 4.28279 24.022 36.9916 -0.0 0.0 -0.0 12.1707 20.235 -24.3094 6.66065 20.0578 -59.0613 1.90769 43.3762 -0.758764 22.6982 -0.233781 2.87116 3.91957 26.3435 -14.2017 0.0 0.0 0.0 31.6916 12.0883 -0.87147 -18.4005 0.311245 2.79445 1.41098 27.9444 -0.218411 -34.1814 0.0 0.0 -0.0 0.0 -0.0 -5.61167 3.88029 9.36911 -29.1709 -0.0749288 -4.42794 35.6456 12.3537 4.68452 -10.2831 0.0 0.0 0.0 0.0 0.0 
3067.18587098 654.112 -1680.43518597 -2.60606958026 58.155552478 -4.16643436378 0.850577 0.676777 4.4395 0.861452 0.393198 4.47347 0.895326 -0.486683 4.46429 0.867594 0.223744 4.48512 -24.2708 5.51875 1.24528 -24.4643 10.1055 3.88971 -0.0 0.0 -0.0 -2.13602 21.1371 -0.609597 -18.8234 -32.0308 64.4706 0.709278 -19.3592 0.120981 -16.3771 -0.855523 1.90422 2.6603 20.5349 24.8851 -0.0 0.0 -0.0 11.8918 17.7975 -23.8247 2.20737 17.9521 -60.6797 1.7508 40.9314 -0.653447 17.3328 -0.281718 2.18776 3.0533 17.7463 -12.9064 0.0 0.0 0.0 32.7611 7.92337 2.00838 -27.7297 0.124305 4.21229 13.8031 26.7785 -2.04792 -34.7807 0.0 0.0 -0.0 0.0 -0.0 -6.93519 11.1891 9.90782 -32.9255 0.0790598 -4.98344 31.5748 -5.1272 4.05449 -7.50907 0.0 0.0 0.0 0.0 0.0 
3036.54851283 652.694 -1698.59007066 -2.70453453937 58.3427514059 -3.97668620687 1.05641 0.700782 4.5593 1.06788 0.409555 4.59455 1.10342 -0.477569 4.58799 1.07415 0.25222 4.60584 -19.9313 5.71828 1.86488 -20.0648 10.075 4.12441 -0.0 0.0 -0.0 -1.91941 21.529 -0.232857 -18.6431 -32.1935 61.4468 0.688895 -18.8427 0.114311 -17.8483 -0.95842 2.06199 2.16614 19.8477 21.4576 -0.0 0.0 -0.0 11.6947 17.7357 -23.3777 -0.206889 16.8067 -63.8299 1.60099 38.4144 -0.55778 14.8835 -0.282291 1.87494 2.71515 16.5094 -11.2025 0.0 0.0 0.0 31.27 6.06359 1.89718 -31.5748 -0.0194685 4.78476 19.4578 24.1026 -2.78354 -33.4799 0.0 0.0 -0.0 0.0 -0.0 -6.29896 11.7169 9.20537 -35.6326 0.212545 -5.37725 28.7886 -9.89037 3.76466 -7.38718 0.0 0.0 0.0 0.0 0.0 
3036.63805201 652.694 -1699.01610851 -2.69130927552 58.1691156772 -3.99223788164 1.05641 0.700782 4.5593 1.06788 0.409555 4.59455 1.10342 -0.477569 4.58799 1.07415 0.25222 4.60584 -19.9313 5.71828 1.86488 -20.0648 10.075 4.12441 -0.0 0.0 -0.0 -1.91941 21.529 -0.232857 -18.6431 -32.1935 61.4468 0.688895 -18.8427 0.114311 -17.8483 -0.95842 2.06199 2.16614 19.8477 21.4576 -0.0 0.0 -0.0 11.6947 17.7357 -23.3777 -0.206889 16.8067 -63.8299 1.60099 38.4144 -0.55778 14.8835 -0.282291 1.87494 2.71515 16.5094 -11.2025 0.0 0.0 0.0 31.27 6.06359 1.89718 -31.5748 -0.0194685 4.78476 19.4578 24.1026 -2.78354 -33.4799 0.0 0.0 -0.0 0.0 -0.0 -6.29896 11.7169 9.20537 -35.6326 0.212545 -5.37725 28.7886 -9.89037 3.76466 -7.38718 0.0 0.0 0.0 0.0 0.0 
2999.41465175 659.934 -1708.09314714 -0.0423118017998 59.7213549477 -7.56092415364 0.840686 0.705635 4.9386 0.854164 0.390347 4.97338 0.891906 -0.587583 4.954 0.857732 0.201178 4.98459 -18.6427 5.86353 2.02593 -18.7629 10.2131 4.20705 -0.0 0.0 -0.0 -1.7409 21.7883 0.0635456 -18.3805 -32.3158 58.9371 0.71828 -19.5863 0.123982 -19.9331 -1.11112 2.28097 1.81755 19.4007 19.0844 -0.0 0.0 -0.0 11.4167 16.0399 -22.8286 -3.67013 15.5554 -65.8235 1.45952 35.8648 -0.472345 13.0104 -0.273708 1.63587 2.52348 15.7595 -10.2537 0.0 0.0 0.0 27.9401 2.96563 5.56656 -34.0805 -0.133731 5.15222 23.3789 23.1463 -3.27213 -32.6104 0.0 0.0 -0.0 0.0 -0.0 -5.95353 16.8732 9.39861 -43.3461 0.693251 -6.46024 28.5415 -14.8903 3.7723 -6.51031 0.0 0.0 0.0 0.0 0.0 
2999.289867 659.934 -1707.51752648 -0.042548129253 59.9069857017 -7.56065075317 0.840686 0.705635 4.9386 0.854164 0.390347 4.97338 0.891906 -0.587583 4.954 0.857732 0.201178 4.98459 -18.6427 5.86353 2.02593 -18.7629 10.2131 4.20705 -0.0 0.0 -0.0 -1.7409 21.7883 0.0635456 -18.3805 -32.3158 58.9371 0.71828 -19.5863 0.123982 -19.9331 -1.11112 2.28097 1.81755 19.4007 19.0844 -0.0 0.0 -0.0 11.4167 16.0399 -22.8286 -3.67013 15.5554 -65.8235 1.45952 35.8648 -0.472345 13.0104 -0.273708 1.63587 2.52348 15.7595 -10.2537 0.0 0.0 0.0 27.9401 2.96563 5.56656 -34.0805 -0.133731 5.15222 23.3789 23.1463 -3.27213 -32.6104 0.0 0.0 -0.0 0.0 -0.0 -5.95353 16.8732 9.39861 -43.3461 0.693251 -6.46024 28.5415 -14.8903 3.7723 -6.51031 0.0 0.0 0.0 0.0 0.0 
2976.95880261 658.48 -1713.91771359 1.76744100637 60.7759982934 -9.94671761269 0.913058 0.734618 5.19517 0.927975 0.40301 5.23125 0.968723 -0.618616 5.21021 0.930924 0.210834 5.24248 -17.0297 6.12487 2.49767 -17.1279 10.3685 4.58794 -0.0 0.0 -0.0 -1.5463 21.1287 0.237318 -16.8885 -32.9105 56.9584 0.726597 -19.7956 0.126784 -21.3699 -1.22097 2.42862 1.57555 19.2402 17.4966 -0.0 0.0 -0.0 11.4643 15.1107 -22.9743 -5.51581 15.0018 -67.4947 1.35683 33.9045 -0.413605 11.8407 -0.264386 1.48676 2.29248 14.1573 -9.42423 0.0 0.0 0.0 25.8679 1.03035 7.11449 -35.5773 -0.209633 5.36927 24.2702 21.2358 -3.35212 -32.5006 0.0 0.0 -0.0 0.0 -0.0 -6.82737 21.6072 9.03239 -48.9077 1.12838 -7.19689 29.9424 -19.1975 3.98426 -5.59241 0.0 0.0 0.0 0.0 0.0 
2975.87155378 658.48 -1708.72878936 1.85374285732 62.2572117442 -10.0448962463 0.913058 0.734618 5.19517 0.927975 0.40301 5.23125 0.968723 -0.618616 5.21021 0.930924 0.210834 5.24248 -17.0297 6.12487 2.49767 -17.1279 10.3685 4.58794 -0.0 0.0 -0.0 -1.5463 21.1287 0.237318 -16.8885 -32.9105 56.9584 0.726597 -19.7956 0.126784 -21.3699 -1.22097 2.42862 1.57555 19.2402 17.4966 -0.0 0.0 -0.0 11.4643 15.1107 -22.9743 -5.51581 15.0018 -67.4947 1.35683 33.9045 -0.413605 11.8407 -0.264386 1.48676 2.29248 14.1573 -9.42423 0.0 0.0 0.0 25.8679 1.03035 7.11449 -35.5773 -0.209633 5.36927 24.2702 21.2358 -3.35212 -32.5006 0.0 0.0 -0.0 0.0 -0.0 -6.82737 21.6072 9.03239 -48.9077 1.12838 -7.19689 29.9424 -19.1975 3.98426 -5.59241 0.0 0.0 0.0 0.0 0.0 
2928.92699683 667.326 -1703.71135536 6.39286228956 64.797135134 -15.1363716358 0.632587 0.693654 5.54342 0.649608 0.340068 5.57619 0.68829 -0.774973 5.53267 0.645618 0.107121 5.58549 -15.4822 6.58331 3.58801 -15.5453 10.5072 5.61875 -0.0 0.0 -0.0 -1.13959 20.0025 0.660004 -14.1599 -33.94 54.358 0.811451 -21.8985 0.156987 -22.9941 -1.34958 2.59218 1.25099 19.0601 15.3974 -0.0 0.0 -0.0 11.0412 13.2372 -22.079 -10.6662 14.0001 -69.1958 1.20185 30.7668 -0.330683 10.23 -0.24657 1.2818 2.07363 12.2733 -8.78568 0.0 0.0 0.0 21.5352 -3.17943 11.0611 -36.2749 -0.246941 5.46974 26.0074 20.3736 -3.54879 -31.7367 0.0 0.0 -0.0 0.0 -0.0 -2.02844 29.8007 6.49207 -58.8801 2.08028 -8.40091 31.0527 -24.6033 4.21806 -4.62942 0.0 0.0 0.0 0.0 0.0 
